<?xml version="1.0" encoding="utf-8"?>
<!-- Generator: Adobe Illustrator 16.0.0, SVG Export Plug-In . SVG Version: 6.00 Build 0)  -->
<!DOCTYPE svg PUBLIC "-//W3C//DTD SVG 1.1//EN" "http://www.w3.org/Graphics/SVG/1.1/DTD/svg11.dtd">
<svg version="1.1" id="Layer_1" xmlns="http://www.w3.org/2000/svg" xmlns:xlink="http://www.w3.org/1999/xlink" x="0px" y="0px"
	 width="429.358px" height="20.792px" viewBox="0 0 429.358 20.792" enable-background="new 0 0 429.358 20.792"
	 xml:space="preserve">
<g>
	<path fill="#FFFFFF" d="M9.807,2.313H6.209v18.479H3.598V2.313H0V0h9.807V2.313z"/>
	<path fill="#FFFFFF" d="M22.982,20.792h-2.597V9.239c0-0.622-0.228-1.163-0.683-1.623c-0.456-0.46-0.999-0.689-1.63-0.689
		c-0.623,0-1.164,0.229-1.624,0.689s-0.69,1.001-0.69,1.623v11.553h-2.583V0h2.583v6.927c0.181-1.543,1.271-2.313,3.274-2.313
		c1.569,0,2.705,0.708,3.409,2.124c0.36,0.73,0.541,1.564,0.541,2.502V20.792z"/>
	<path fill="#FFFFFF" d="M36.563,16.179c-0.189,1.65-0.69,2.832-1.502,3.544c-0.812,0.713-2.038,1.069-3.679,1.069
		c-0.857,0-1.655-0.226-2.395-0.677c-0.739-0.45-1.308-1.055-1.704-1.812c-0.352-0.667-0.528-1.375-0.528-2.124V9.239
		c0-1.451,0.514-2.602,1.542-3.449c0.956-0.784,2.173-1.177,3.652-1.177c0.856,0,1.652,0.226,2.387,0.677
		c0.735,0.45,1.301,1.06,1.698,1.826c0.352,0.667,0.528,1.375,0.528,2.123v4.613H29.34v2.326c0,0.722,0.261,1.294,0.785,1.718
		c0.478,0.389,1.086,0.582,1.826,0.582c1.533,0,2.299-0.767,2.299-2.3H36.563z M33.979,11.539v-2.3c0-0.631-0.228-1.174-0.683-1.63
		c-0.456-0.455-0.999-0.683-1.63-0.683c-0.641,0-1.188,0.228-1.644,0.683c-0.456,0.456-0.683,0.999-0.683,1.63v2.3H33.979z"/>
	<path fill="#FFFFFF" d="M57.341,20.792h-2.584v-9.239h-4.626v9.239h-2.584V4.603c0-1.381,0.469-2.499,1.407-3.356
		C49.855,0.416,51.005,0,52.403,0c2.065,0,3.531,0.795,4.396,2.383c0.36,0.659,0.541,1.398,0.541,2.22V20.792z M54.757,9.239V4.595
		c0-0.67-0.219-1.217-0.656-1.643c-0.438-0.426-0.99-0.639-1.657-0.639s-1.22,0.213-1.657,0.639s-0.656,0.973-0.656,1.643v4.645
		H54.757z"/>
	<path fill="#FFFFFF" d="M71.206,16.179c-0.189,1.65-0.69,2.832-1.502,3.544c-0.812,0.713-2.038,1.069-3.679,1.069
		c-0.857,0-1.655-0.226-2.395-0.677c-0.739-0.45-1.308-1.055-1.704-1.812c-0.352-0.667-0.528-1.375-0.528-2.124V9.239
		c0-1.451,0.514-2.602,1.542-3.449c0.956-0.784,2.173-1.177,3.652-1.177c0.856,0,1.653,0.226,2.387,0.677
		c0.735,0.45,1.301,1.06,1.698,1.826c0.352,0.667,0.527,1.375,0.527,2.123v4.613h-7.224v2.326c0,0.722,0.261,1.294,0.785,1.718
		c0.478,0.389,1.086,0.582,1.826,0.582c1.533,0,2.299-0.767,2.299-2.3H71.206z M68.622,11.539v-2.3c0-0.631-0.228-1.174-0.683-1.63
		c-0.456-0.455-0.999-0.683-1.63-0.683c-0.641,0-1.188,0.228-1.644,0.683c-0.456,0.456-0.683,0.999-0.683,1.63v2.3H68.622z"/>
	<path fill="#FFFFFF" d="M84.651,16.152c0,1.37-0.472,2.486-1.414,3.348s-2.107,1.292-3.496,1.292c-3.076,0-4.613-1.538-4.613-4.613
		h2.313c0.18,1.533,0.901,2.3,2.164,2.3c1.65,0,2.476-0.644,2.476-1.933c0-0.514-0.442-1.045-1.326-1.595
		c-0.92-0.514-1.839-1.031-2.759-1.554c-1.137-0.685-1.917-1.388-2.341-2.108c-0.352-0.612-0.527-1.288-0.527-2.027
		c0-1.369,0.478-2.495,1.434-3.378c0.929-0.847,2.084-1.271,3.463-1.271c2.896,0,4.438,1.542,4.627,4.626h-2.3
		c-0.198-1.542-0.929-2.312-2.191-2.312c-1.642,0-2.462,0.64-2.462,1.921c0,0.514,0.441,1.046,1.325,1.596
		c0.92,0.514,1.84,1.028,2.76,1.542c1.137,0.694,1.916,1.407,2.341,2.138C84.476,14.728,84.651,15.403,84.651,16.152z"/>
	<path fill="#FFFFFF" d="M95.703,20.792h-0.284c-1.263,0-2.347-0.453-3.254-1.359c-0.906-0.906-1.359-1.991-1.359-3.254V6.927
		h-2.326V4.613h2.326V0h2.584v4.613h2.313v2.313H93.39v9.252c0,0.632,0.226,1.168,0.677,1.61c0.45,0.441,0.996,0.672,1.637,0.689
		V20.792z"/>
	<path fill="#FFFFFF" d="M109.163,20.792h-2.598V9.239c0-0.622-0.228-1.163-0.684-1.623c-0.455-0.46-0.998-0.689-1.63-0.689
		c-0.622,0-1.163,0.229-1.623,0.689s-0.689,1.001-0.689,1.623v11.553h-2.584V0h2.584v6.927c0.18-1.543,1.271-2.313,3.273-2.313
		c1.569,0,2.705,0.708,3.408,2.124c0.361,0.73,0.542,1.564,0.542,2.502V20.792z"/>
	<path fill="#FFFFFF" d="M122.744,16.179c-0.189,1.65-0.69,2.832-1.502,3.544c-0.812,0.713-2.038,1.069-3.679,1.069
		c-0.857,0-1.655-0.226-2.395-0.677c-0.74-0.45-1.308-1.055-1.705-1.812c-0.352-0.667-0.527-1.375-0.527-2.124V9.239
		c0-1.451,0.515-2.602,1.542-3.449c0.956-0.784,2.174-1.177,3.652-1.177c0.857,0,1.652,0.226,2.388,0.677
		c0.735,0.45,1.301,1.06,1.698,1.826c0.352,0.667,0.527,1.375,0.527,2.123v4.613h-7.224v2.326c0,0.722,0.262,1.294,0.784,1.718
		c0.479,0.389,1.087,0.582,1.826,0.582c1.533,0,2.3-0.767,2.3-2.3H122.744z M120.16,11.539v-2.3c0-0.631-0.228-1.174-0.683-1.63
		c-0.456-0.455-0.999-0.683-1.631-0.683c-0.64,0-1.188,0.228-1.644,0.683c-0.455,0.456-0.683,0.999-0.683,1.63v2.3H120.16z"/>
	<path fill="#FFFFFF" d="M133.728,20.792h-0.284c-1.263,0-2.347-0.453-3.254-1.359c-0.906-0.906-1.359-1.991-1.359-3.254V6.927
		h-2.326V4.613h2.326V0h2.584v4.613h2.313v2.313h-2.313v9.252c0,0.632,0.226,1.168,0.677,1.61c0.45,0.441,0.996,0.672,1.637,0.689
		V20.792z"/>
	<path fill="#FFFFFF" d="M140.166,2.313h-2.583V0h2.583V2.313z M140.166,20.792h-2.583V4.613h2.583V20.792z"/>
	<path fill="#FFFFFF" d="M153.721,16.179c-0.189,3.075-1.826,4.613-4.91,4.613c-0.812,0-1.38-0.068-1.705-0.203
		c-0.784-0.315-1.488-0.924-2.11-1.826c-0.532-0.784-0.798-1.646-0.798-2.584V9.239c0-1.361,0.478-2.479,1.434-3.354
		c0.938-0.848,2.093-1.271,3.463-1.271c2.913,0,4.455,1.542,4.627,4.626h-2.313c-0.171-1.542-0.942-2.312-2.313-2.312
		c-0.622,0-1.163,0.229-1.623,0.689s-0.689,1.001-0.689,1.623v6.939c0,0.821,0.279,1.447,0.839,1.881
		c0.352,0.279,0.843,0.419,1.474,0.419c1.371,0,2.143-0.767,2.313-2.3H153.721z"/>
	<path fill="#FFFFFF" d="M166.869,16.152c0,1.37-0.472,2.486-1.414,3.348s-2.107,1.292-3.496,1.292
		c-3.076,0-4.613-1.538-4.613-4.613h2.313c0.18,1.533,0.901,2.3,2.164,2.3c1.65,0,2.476-0.644,2.476-1.933
		c0-0.514-0.442-1.045-1.326-1.595c-0.92-0.514-1.839-1.031-2.759-1.554c-1.137-0.685-1.917-1.388-2.341-2.108
		c-0.352-0.612-0.527-1.288-0.527-2.027c0-1.369,0.478-2.495,1.434-3.378c0.929-0.847,2.084-1.271,3.463-1.271
		c2.896,0,4.438,1.542,4.627,4.626h-2.3c-0.198-1.542-0.929-2.312-2.191-2.312c-1.642,0-2.462,0.64-2.462,1.921
		c0,0.514,0.441,1.046,1.325,1.596c0.92,0.514,1.84,1.028,2.76,1.542c1.137,0.694,1.916,1.407,2.341,2.138
		C166.693,14.728,166.869,15.403,166.869,16.152z"/>
	<path fill="#FFFFFF" d="M187.632,16.179c0,1.443-0.515,2.589-1.542,3.437c-0.956,0.784-2.169,1.177-3.639,1.177
		c-0.866,0-1.667-0.226-2.401-0.677c-0.735-0.45-1.301-1.055-1.698-1.812c-0.352-0.667-0.527-1.375-0.527-2.124V9.239
		c0-1.451,0.515-2.602,1.542-3.449c0.956-0.784,2.174-1.177,3.652-1.177c0.857,0,1.652,0.226,2.388,0.677
		c0.735,0.45,1.301,1.06,1.698,1.826c0.352,0.667,0.527,1.375,0.527,2.123V16.179z M185.048,16.179V9.239
		c0-0.631-0.228-1.174-0.683-1.63c-0.456-0.455-0.999-0.683-1.631-0.683c-0.64,0-1.188,0.228-1.644,0.683
		c-0.455,0.456-0.683,0.999-0.683,1.63v6.939c0,0.632,0.228,1.173,0.683,1.623c0.456,0.451,1.004,0.677,1.644,0.677
		c0.632,0,1.175-0.226,1.631-0.677C184.82,17.352,185.048,16.811,185.048,16.179z"/>
	<path fill="#FFFFFF" d="M199.008,2.368h-0.879c-0.73,0.018-1.24,0.246-1.528,0.686c-0.117,0.17-0.176,0.69-0.176,1.56h2.312v2.313
		h-2.312v13.865h-2.584V6.927h-2.313V4.613h2.313c0-0.521,0-0.813,0-0.877c0.072-1.105,0.415-1.969,1.028-2.59
		c0.343-0.351,0.82-0.638,1.434-0.863C196.808,0.095,197.231,0,197.574,0h1.434V2.368z"/>
	<path fill="#FFFFFF" d="M219.583,16.182c0,1.442-0.51,2.587-1.529,3.435c-0.955,0.783-2.173,1.176-3.652,1.176
		c-0.856,0-1.652-0.226-2.387-0.676c-0.735-0.451-1.302-1.055-1.698-1.812c-0.352-0.667-0.527-1.375-0.527-2.123V0h2.584v16.181
		c0,0.622,0.228,1.16,0.683,1.615s0.999,0.683,1.63,0.683c0.632,0,1.175-0.228,1.631-0.683c0.455-0.455,0.683-0.993,0.683-1.615V0
		h2.584V16.182z"/>
	<path fill="#FFFFFF" d="M233.421,16.152c0,1.37-0.472,2.486-1.414,3.348s-2.107,1.292-3.496,1.292
		c-3.076,0-4.613-1.538-4.613-4.613h2.313c0.18,1.533,0.901,2.3,2.164,2.3c1.65,0,2.476-0.644,2.476-1.933
		c0-0.514-0.442-1.045-1.326-1.595c-0.92-0.514-1.839-1.031-2.759-1.554c-1.137-0.685-1.917-1.388-2.341-2.108
		c-0.352-0.612-0.527-1.288-0.527-2.027c0-1.369,0.478-2.495,1.434-3.378c0.929-0.847,2.084-1.271,3.463-1.271
		c2.896,0,4.438,1.542,4.627,4.626h-2.3c-0.198-1.542-0.929-2.312-2.191-2.312c-1.642,0-2.462,0.64-2.462,1.921
		c0,0.514,0.441,1.046,1.325,1.596c0.92,0.514,1.84,1.028,2.76,1.542c1.137,0.694,1.916,1.407,2.341,2.138
		C233.245,14.728,233.421,15.403,233.421,16.152z"/>
	<path fill="#FFFFFF" d="M247.205,16.179c-0.189,1.65-0.69,2.832-1.502,3.544c-0.812,0.713-2.038,1.069-3.679,1.069
		c-0.857,0-1.655-0.226-2.395-0.677c-0.74-0.45-1.308-1.055-1.705-1.812c-0.352-0.667-0.527-1.375-0.527-2.124V9.239
		c0-1.451,0.515-2.602,1.542-3.449c0.956-0.784,2.174-1.177,3.652-1.177c0.857,0,1.652,0.226,2.388,0.677
		c0.735,0.45,1.301,1.06,1.698,1.826c0.352,0.667,0.527,1.375,0.527,2.123v4.613h-7.224v2.326c0,0.722,0.262,1.294,0.784,1.718
		c0.479,0.389,1.087,0.582,1.826,0.582c1.533,0,2.3-0.767,2.3-2.3H247.205z M244.621,11.539v-2.3c0-0.631-0.228-1.174-0.683-1.63
		c-0.456-0.455-0.999-0.683-1.631-0.683c-0.64,0-1.188,0.228-1.644,0.683c-0.455,0.456-0.683,0.999-0.683,1.63v2.3H244.621z"/>
	<path fill="#FFFFFF" d="M262.801,13.853h-11.552v-2.313h11.552V13.853z"/>
	<path fill="#FFFFFF" d="M276.869,16.182c0,1.442-0.51,2.587-1.529,3.435c-0.955,0.783-2.173,1.176-3.652,1.176
		c-0.856,0-1.652-0.226-2.387-0.676c-0.735-0.451-1.302-1.055-1.698-1.812c-0.352-0.667-0.527-1.375-0.527-2.123V0h2.584v16.181
		c0,0.622,0.228,1.16,0.683,1.615s0.999,0.683,1.63,0.683c0.632,0,1.175-0.228,1.631-0.683c0.455-0.455,0.683-0.993,0.683-1.615V0
		h2.584V16.182z"/>
	<path fill="#FFFFFF" d="M291.087,20.792h-2.598V9.239c0-0.622-0.228-1.163-0.683-1.623c-0.456-0.46-0.999-0.689-1.631-0.689
		c-0.622,0-1.163,0.229-1.623,0.689s-0.689,1.001-0.689,1.623v11.553h-2.584V4.613h2.584v2.313c0.18-1.543,1.271-2.313,3.273-2.313
		c1.569,0,2.7,0.708,3.396,2.124c0.369,0.73,0.555,1.564,0.555,2.502V20.792z"/>
	<path fill="#FFFFFF" d="M302.395,2.368h-0.879c-0.73,0.018-1.24,0.246-1.528,0.686c-0.117,0.17-0.176,0.69-0.176,1.56h2.312v2.313
		h-2.312v13.865h-2.584V6.927h-2.313V4.613h2.313c0-0.521,0-0.813,0-0.877c0.072-1.105,0.415-1.969,1.028-2.59
		c0.343-0.351,0.82-0.638,1.434-0.863C300.194,0.095,300.618,0,300.961,0h1.434V2.368z"/>
	<path fill="#FFFFFF" d="M313.419,7.265h-1.609c-0.803-0.009-1.521,0.166-2.151,0.526c-0.767,0.432-1.149,1.016-1.149,1.753v11.248
		h-2.584V4.613h2.584v2.651c0.207-1.768,1.353-2.651,3.436-2.651h1.475V7.265z"/>
	<path fill="#FFFFFF" d="M319.654,2.313h-2.583V0h2.583V2.313z M319.654,20.792h-2.583V4.613h2.583V20.792z"/>
	<path fill="#FFFFFF" d="M333.479,16.179c-0.189,1.65-0.69,2.832-1.502,3.544c-0.812,0.713-2.038,1.069-3.679,1.069
		c-0.857,0-1.655-0.226-2.395-0.677c-0.74-0.45-1.308-1.055-1.705-1.812c-0.352-0.667-0.527-1.375-0.527-2.124V9.239
		c0-1.451,0.515-2.602,1.542-3.449c0.956-0.784,2.174-1.177,3.652-1.177c0.857,0,1.652,0.226,2.388,0.677
		c0.735,0.45,1.301,1.06,1.698,1.826c0.352,0.667,0.527,1.375,0.527,2.123v4.613h-7.224v2.326c0,0.722,0.262,1.294,0.784,1.718
		c0.479,0.389,1.087,0.582,1.826,0.582c1.533,0,2.3-0.767,2.3-2.3H333.479z M330.896,11.539v-2.3c0-0.631-0.228-1.174-0.683-1.63
		c-0.456-0.455-0.999-0.683-1.631-0.683c-0.64,0-1.188,0.228-1.644,0.683c-0.455,0.456-0.683,0.999-0.683,1.63v2.3H330.896z"/>
	<path fill="#FFFFFF" d="M347.304,20.792h-2.598V9.239c0-0.622-0.228-1.163-0.683-1.623c-0.456-0.46-0.999-0.689-1.631-0.689
		c-0.622,0-1.163,0.229-1.623,0.689s-0.689,1.001-0.689,1.623v11.553h-2.584V4.613h2.584v2.313c0.18-1.543,1.271-2.313,3.273-2.313
		c1.569,0,2.7,0.708,3.396,2.124c0.369,0.73,0.555,1.564,0.555,2.502V20.792z"/>
	<path fill="#FFFFFF" d="M361.047,20.792h-2.584v-2.313c-0.181,1.542-1.271,2.313-3.273,2.313c-1.569,0-2.701-0.703-3.396-2.109
		c-0.36-0.729-0.541-1.563-0.541-2.501V9.247c0-2.343,1.127-3.78,3.382-4.312c0.875-0.207,2.15-0.311,3.828-0.311V0h2.584V20.792z
		 M358.463,16.179V6.927h-2.313c-0.631,0-1.174,0.228-1.63,0.683c-0.455,0.456-0.683,0.999-0.683,1.63v6.939
		c0,0.632,0.228,1.173,0.683,1.623c0.456,0.451,0.999,0.677,1.63,0.677c0.632,0,1.175-0.226,1.631-0.677
		C358.235,17.352,358.463,16.811,358.463,16.179z"/>
	<path fill="#FFFFFF" d="M367.837,20.792h-2.583V0h2.583V20.792z"/>
	<path fill="#FFFFFF" d="M374.628,2.313h-2.583V0h2.583V2.313z M374.628,20.792h-2.583V4.613h2.583V20.792z"/>
	<path fill="#FFFFFF" d="M388.562,20.792h-2.598V9.239c0-0.622-0.228-1.163-0.683-1.623c-0.456-0.46-0.999-0.689-1.631-0.689
		c-0.622,0-1.163,0.229-1.623,0.689s-0.689,1.001-0.689,1.623v11.553h-2.584V4.613h2.584v2.313c0.18-1.543,1.271-2.313,3.273-2.313
		c1.569,0,2.7,0.708,3.396,2.124c0.369,0.73,0.555,1.564,0.555,2.502V20.792z"/>
	<path fill="#FFFFFF" d="M402.399,16.179c-0.189,1.65-0.69,2.832-1.502,3.544c-0.812,0.713-2.038,1.069-3.679,1.069
		c-0.857,0-1.655-0.226-2.395-0.677c-0.74-0.45-1.308-1.055-1.705-1.812c-0.352-0.667-0.527-1.375-0.527-2.124V9.239
		c0-1.451,0.515-2.602,1.542-3.449c0.956-0.784,2.174-1.177,3.652-1.177c0.857,0,1.652,0.226,2.388,0.677
		c0.735,0.45,1.301,1.06,1.698,1.826c0.352,0.667,0.527,1.375,0.527,2.123v4.613h-7.224v2.326c0,0.722,0.262,1.294,0.784,1.718
		c0.479,0.389,1.087,0.582,1.826,0.582c1.533,0,2.3-0.767,2.3-2.3H402.399z M399.815,11.539v-2.3c0-0.631-0.228-1.174-0.683-1.63
		c-0.456-0.455-0.999-0.683-1.631-0.683c-0.64,0-1.188,0.228-1.644,0.683c-0.455,0.456-0.683,0.999-0.683,1.63v2.3H399.815z"/>
	<path fill="#FFFFFF" d="M415.845,16.152c0,1.37-0.472,2.486-1.414,3.348s-2.107,1.292-3.496,1.292
		c-3.076,0-4.613-1.538-4.613-4.613h2.313c0.18,1.533,0.901,2.3,2.164,2.3c1.65,0,2.476-0.644,2.476-1.933
		c0-0.514-0.442-1.045-1.326-1.595c-0.92-0.514-1.839-1.031-2.759-1.554c-1.137-0.685-1.917-1.388-2.341-2.108
		c-0.352-0.612-0.527-1.288-0.527-2.027c0-1.369,0.478-2.495,1.434-3.378c0.929-0.847,2.084-1.271,3.463-1.271
		c2.896,0,4.438,1.542,4.627,4.626h-2.3c-0.198-1.542-0.929-2.312-2.191-2.312c-1.642,0-2.462,0.64-2.462,1.921
		c0,0.514,0.441,1.046,1.325,1.596c0.92,0.514,1.84,1.028,2.76,1.542c1.137,0.694,1.916,1.407,2.341,2.138
		C415.669,14.728,415.845,15.403,415.845,16.152z"/>
	<path fill="#FFFFFF" d="M429.358,16.152c0,1.37-0.472,2.486-1.414,3.348s-2.107,1.292-3.496,1.292
		c-3.076,0-4.613-1.538-4.613-4.613h2.313c0.18,1.533,0.901,2.3,2.164,2.3c1.65,0,2.476-0.644,2.476-1.933
		c0-0.514-0.442-1.045-1.326-1.595c-0.92-0.514-1.839-1.031-2.759-1.554c-1.137-0.685-1.917-1.388-2.341-2.108
		c-0.352-0.612-0.527-1.288-0.527-2.027c0-1.369,0.478-2.495,1.434-3.378c0.929-0.847,2.084-1.271,3.463-1.271
		c2.896,0,4.438,1.542,4.627,4.626h-2.3c-0.198-1.542-0.929-2.312-2.191-2.312c-1.642,0-2.462,0.64-2.462,1.921
		c0,0.514,0.441,1.046,1.325,1.596c0.92,0.514,1.84,1.028,2.76,1.542c1.137,0.694,1.916,1.407,2.341,2.138
		C429.183,14.728,429.358,15.403,429.358,16.152z"/>
</g>
</svg>
