<?xml version="1.0" encoding="utf-8"?>
<!-- Generator: Adobe Illustrator 16.0.0, SVG Export Plug-In . SVG Version: 6.00 Build 0)  -->
<!DOCTYPE svg PUBLIC "-//W3C//DTD SVG 1.1//EN" "http://www.w3.org/Graphics/SVG/1.1/DTD/svg11.dtd">
<svg version="1.1" id="Layer_1" zoomAndPan="disable"
	 xmlns="http://www.w3.org/2000/svg" xmlns:xlink="http://www.w3.org/1999/xlink" x="0px" y="0px" width="99.834px"
	 height="99.834px" viewBox="0 0 99.834 99.834" enable-background="new 0 0 99.834 99.834" xml:space="preserve">
<path fill="#5BD1FE" d="M98.422,26.262c1.885,15.378,1.885,30.756,0,46.136c-0.599,4.886-4.522,8.694-9.427,9.145
	c-25.894,2.375-51.788,2.375-77.684,0c-4.9-0.45-8.826-4.259-9.425-9.145c-1.885-15.38-1.885-30.758,0-46.136
	c0.599-4.886,4.525-8.693,9.425-9.144c25.896-2.374,51.791-2.374,77.684,0C93.899,17.568,97.823,21.376,98.422,26.262z"/>
<polygon fill="#FFFFFF" points="40.282,35.308 64.57,49.331 40.282,63.352 "/>
</svg>
